{"title":"Batman 1966 Complete (TV Series 1966–1968) 1080P WEB-DL","uid":15937972,"size":100619646014,"categoryP":"video","categoryS":"hd___tv_shows","magnet":"?xt=urn:btih:4685963f7adfc5d0f0b048273c3f28a87d9c62c6&amp;dn=Batman+1966+Complete+%28TV+Series+1966%26ndash%3B1968%29+1080P+WEB-DL&amp;tr=udp%3A%2F%2Ftracker.leechers-paradise.org%3A6969&amp;tr=udp%3A%2F%2Fzer0day.ch%3A1337&amp;tr=udp%3A%2F%2Fopen.demonii.com%3A1337&amp;tr=udp%3A%2F%2Ftracker.coppersurfer.tk%3A6969&amp;tr=udp%3A%2F%2Fexodus.desync.com%3A6969","seeders":0,"leechers":10,"uploader":"jmanwf","files":120,"time":1475421682,"description":"Storyline\r\nWealthy entrepreneur Bruce Wayne and his ward Dick Grayson lead a double life: they are actually the crime-fighting duo Batman and Robin. A secret Batpole in the Wayne mansion leads to the Batcave, where Police Commissioner Gordon summons the Dynamic Duo on the Batphone with the latest emergency threatening Gotham City. Racing to the scene of the crime in the jet-powered Batmobile, Batman and Robin must (with the help of their trusty utility-belts) thwart the efforts of a rogues gallery of flamboyant arch-villains, including the Joker, the Penguin, the Riddler and the Catwoman.\r\n\r\n\r\n\r\n\r\nALL 120 Episodes IN MKV\r\n\r\n\r\nALL IN HD\r\n\r\n\r\n\r\nALL Episodes have English Subtitles\r\n\r\n\r\n\r\nVideo\r\nID : 2\r\nFormat : AVC\r\nFormat/Info : Advanced Video Codec\r\nFormat profile :   \r\nFormat settings, CABAC : Yes\r\nFormat settings, ReFrames : 5 frames\r\nCodec ID : V_MPEG4/ISO/AVC\r\nDuration : 25mn 17s\r\nBit rate : 4 300 Kbps\r\nWidth : 1 432 pixels\r\nHeight : 1 076 pixels\r\nDisplay aspect ratio : 4:3\r\nFrame rate mode : Constant\r\nFrame rate : 23.976 (23976/1000) fps\r\nColor space : YUV\r\nChroma subsampling : 4:2:0\r\nBit depth : 8 bits\r\nScan type : Progressive\r\nBits/(Pixel*Frame) : 0.116\r\nStream size : 778 MiB (97%)\r\nLanguage : English\r\nDefault : Yes\r\nForced : No\r\nColor range : Limited\r\nColor primaries : BT.709\r\nTransfer characteristics : BT.709\r\nMatrix coefficients : BT.709\r\n\r\nAudio\r\nID : 1\r\nFormat : AAC\r\nFormat/Info : Advanced Audio Codec\r\nFormat profile : LC\r\nCodec ID : A_AAC\r\nDuration : 25mn 17s\r\nBit rate : 123 Kbps\r\nChannel(s) : 2 channels\r\nChannel positions : Front: L R\r\nSampling rate : 48.0 KHz\r\nFrame rate : 46.875 fps (1024 spf)\r\nCompression mode : Lossy\r\nStream size : 22.3 MiB (3%)\r\nLanguage : English\r\nDefault : Yes\r\nForced : No\r\n\r\nText\r\nID : 3\r\nFormat : UTF-8\r\nCodec ID : S_TEXT/UTF8\r\nCodec ID/Info : UTF-8 Plain Text\r\nDuration : 25mn 8s\r\nBit rate : 70 bps\r\nCount of elements : 371\r\nStream size : 13.1 KiB (0%)\r\nDefault : Yes\r\nForced : No\r\n\r\n\r\n \nhttp://www.imdb.com/title/tt0059968/","torrent":{"xt":"urn:btih:4685963f7adfc5d0f0b048273c3f28a87d9c62c6","amp;dn":"Batman+1966+Complete+%28TV+Series+1966%26ndash%3B1968%29+1080P+WEB-DL","amp;tr":["udp%3A%2F%2Ftracker.leechers-paradise.org%3A6969","udp%3A%2F%2Fzer0day.ch%3A1337","udp%3A%2F%2Fopen.demonii.com%3A1337","udp%3A%2F%2Ftracker.coppersurfer.tk%3A6969","udp%3A%2F%2Fexodus.desync.com%3A6969"],"infoHash":"4685963f7adfc5d0f0b048273c3f28a87d9c62c6","infoHashBuffer":{"type":"Buffer","data":[70,133,150,63,122,223,197,208,240,176,72,39,60,63,40,168,125,156,98,198]},"announce":[],"urlList":[]}}